# xmcd CD database file
#
# Track frame offsets:
#	150
#	13033
#	25110
#	36360
#	51160
#	61183
#	73100
#	84923
#	98148
#	111423
#	120728
#	131660
#
# Disc length: 1930 seconds
#
# Revision: 0
# Processed by: cddbd v1.5.2PL0 Copyright (c) Steve Scherf et al.
# Submitted via: CDex 1.70beta2
#
DISCID=a007880c
DTITLE=Jonny Hill - Die schönsten Volkslieder im Country-Sound
DYEAR=1900
DGENRE=Country
TTITLE0=Ein Heller und ein Batzen
TTITLE1=Lustig ist das Zigeunerleben
TTITLE2=Jetzt kommen die lustigen Tage
TTITLE3=Mädel ruck ruck ruck
TTITLE4=Du, du liegst mir am Herzen
TTITLE5=Es wollt´  ein Mädel früh aufstehn
TTITLE6=Im Krug zum grünen Kranze
TTITLE7=Schneewalzer
TTITLE8=Es zogen drei Burschen wohl über den Rhein
TTITLE9=Beim Kronenwirt ist heute Jubel und Tanz
TTITLE10=Es war einmal ein treuer Husar
TTITLE11=Muß i denn, muß i denn
EXTD=
EXTT0=
EXTT1=
EXTT2=
EXTT3=
EXTT4=
EXTT5=
EXTT6=
EXTT7=
EXTT8=
EXTT9=
EXTT10=
EXTT11=
PLAYORDER=
